<svg version="1.1" id="Layer_1" xmlns="http://www.w3.org/2000/svg" xmlns:xlink="http://www.w3.org/1999/xlink" x="0px" y="0px"
	 width="100%" viewBox="0 0 500 500" enable-background="new 0 0 500 500" xml:space="preserve">
<path fill="#000000" opacity="1.000000" stroke="none" 
	d="
M215.000000,501.000000 
	C143.333344,501.000000 72.166702,501.000000 1.000038,501.000000 
	C1.000026,334.333405 1.000026,167.666779 1.000013,1.000128 
	C167.666580,1.000085 334.333160,1.000085 500.999817,1.000043 
	C500.999878,167.666534 500.999878,334.333069 500.999939,500.999817 
	C405.833344,501.000000 310.666656,501.000000 215.000000,501.000000 
M250.513062,353.922852 
	C243.517532,353.922852 236.521988,353.922852 229.526459,353.922852 
	C229.497147,354.455139 229.467850,354.987457 229.438538,355.519745 
	C236.242813,357.087402 243.047104,358.655090 249.988007,361.055725 
	C249.932877,363.024689 249.877747,364.993622 248.908340,366.979767 
	C232.918427,366.989746 216.928299,366.955383 200.938705,367.031647 
	C194.576614,367.061981 190.426422,371.251160 190.555878,377.209686 
	C190.683594,383.088135 194.543259,386.881104 200.808731,386.923309 
	C216.959473,387.032104 233.111038,387.018433 249.631042,387.794464 
	C249.631042,394.201263 249.631042,400.608063 249.631042,408.247498 
	C256.534302,404.114410 262.279846,400.520752 268.206207,397.255219 
	C269.398987,396.597961 271.586884,396.628448 272.788330,397.294098 
	C278.714783,400.577759 284.463715,404.181763 290.988678,408.101227 
	C290.988678,405.088806 290.902344,403.128418 291.005829,401.178101 
	C291.257080,396.441467 291.596588,391.709503 292.752930,387.133728 
	C299.400665,387.085571 306.060638,386.764557 312.692780,387.063019 
	C319.895386,387.387054 325.437195,383.861115 329.827332,379.172028 
	C343.523438,364.543335 344.167145,348.477448 332.030243,332.836670 
	C330.011078,330.234589 330.191101,328.533661 331.464050,325.803650 
	C336.094177,315.873932 338.780670,305.535248 337.087738,294.396820 
	C333.334503,269.703308 320.361481,252.086121 297.072205,242.642502 
	C285.846436,238.090515 273.963165,236.839966 261.871063,236.922089 
	C256.243683,236.960327 250.581299,236.363235 244.997849,235.595413 
	C243.340622,235.367523 241.898026,233.578934 240.357086,232.505493 
	C241.474991,231.043457 242.293900,229.028397 243.770615,228.230026 
	C247.260223,226.343323 251.092697,225.102600 254.732590,223.479675 
	C262.909546,219.833801 271.371185,216.672668 279.120483,212.265427 
	C286.631683,207.993622 287.088654,202.342163 280.325348,197.250519 
	C274.439972,192.819794 273.025787,187.723969 272.675079,180.721268 
	C271.839691,164.041504 265.837555,149.372681 243.878326,147.947647 
	C240.775757,147.746292 239.883926,146.175797 240.407562,143.293076 
	C241.388168,137.894791 242.306824,132.484436 243.177887,127.067299 
	C244.109665,121.272606 242.730331,119.946495 237.103516,121.977379 
	C232.589325,123.606689 228.343887,125.980606 224.204254,127.359154 
	C224.503342,126.966980 224.728760,126.470711 225.112946,126.198761 
	C228.938904,123.490562 229.057098,119.450089 226.488403,116.690033 
	C223.660400,113.651321 220.788940,117.093452 218.599609,119.028946 
	C209.553375,127.026299 202.629227,136.629089 197.627518,147.626648 
	C196.946060,149.125015 195.891098,150.564346 198.726761,150.844818 
	C198.216232,151.692505 197.711761,152.543930 197.194290,153.387344 
	C190.334290,164.568390 182.173782,175.169128 176.876755,187.046967 
	C165.222855,213.179214 159.050537,240.673477 162.042267,269.610657 
	C163.632996,284.996704 167.086426,299.860748 175.540268,313.079773 
	C179.441025,319.179291 183.877182,324.936401 188.539062,331.509277 
	C180.380630,334.865265 172.364349,338.162781 164.348083,341.460297 
	C164.412231,341.959412 164.476379,342.458527 164.540527,342.957642 
	C166.590973,342.957642 168.641418,342.956970 170.691864,342.957764 
	C214.011093,342.974823 257.330353,342.970428 300.649506,343.027649 
	C309.153046,343.038910 315.017151,348.144714 314.888763,355.139801 
	C314.764984,361.885651 308.964478,366.738434 300.730499,366.938873 
	C297.566406,367.015900 294.400146,367.005676 291.020599,366.117554 
	C291.020599,362.218384 291.020599,358.319244 291.020599,354.054169 
	C277.323425,354.054169 264.428009,354.054169 250.513062,353.922852 
z"/>
<path fill="#1D232F" opacity="1.000000" stroke="none" 
	d="
M291.234863,367.035187 
	C294.400146,367.005676 297.566406,367.015900 300.730499,366.938873 
	C308.964478,366.738434 314.764984,361.885651 314.888763,355.139801 
	C315.017151,348.144714 309.153046,343.038910 300.649506,343.027649 
	C257.330353,342.970428 214.011093,342.974823 170.691864,342.957764 
	C168.641418,342.956970 166.590973,342.957642 164.540527,342.957642 
	C164.476379,342.458527 164.412231,341.959412 164.348083,341.460297 
	C172.364349,338.162781 180.380630,334.865265 188.539062,331.509277 
	C183.877182,324.936401 179.441025,319.179291 175.540268,313.079773 
	C167.086426,299.860748 163.632996,284.996704 162.042267,269.610657 
	C159.050537,240.673477 165.222855,213.179214 176.876755,187.046967 
	C182.173782,175.169128 190.334290,164.568390 197.194290,153.387344 
	C197.711761,152.543930 198.216232,151.692505 198.865784,150.427521 
	C199.004807,150.010239 199.141769,149.824524 199.403015,149.680420 
	C200.283417,149.014023 200.902588,148.491730 201.742828,147.756699 
	C205.299072,144.209763 208.634247,140.875549 212.244995,137.297760 
	C213.529068,136.364395 214.537567,135.674637 215.690414,134.842438 
	C216.212570,134.313156 216.590378,133.926285 217.243286,133.294861 
	C218.526581,132.362213 219.534790,131.674133 220.617081,130.914398 
	C220.691177,130.842758 220.973450,130.542343 221.225891,130.321869 
	C222.330109,129.396225 223.181885,128.691055 224.018219,127.992798 
	C224.002777,127.999710 223.979187,128.024094 223.979187,128.024094 
	C228.343887,125.980606 232.589325,123.606689 237.103516,121.977379 
	C242.730331,119.946495 244.109665,121.272606 243.177887,127.067299 
	C242.306824,132.484436 241.388168,137.894791 240.407562,143.293076 
	C239.883926,146.175797 240.775757,147.746292 243.878326,147.947647 
	C265.837555,149.372681 271.839691,164.041504 272.675079,180.721268 
	C273.025787,187.723969 274.439972,192.819794 280.325348,197.250519 
	C287.088654,202.342163 286.631683,207.993622 279.120483,212.265427 
	C271.371185,216.672668 262.909546,219.833801 254.732590,223.479675 
	C251.092697,225.102600 247.260223,226.343323 243.770615,228.230026 
	C242.293900,229.028397 241.474991,231.043457 240.357086,232.505493 
	C241.898026,233.578934 243.340622,235.367523 244.997849,235.595413 
	C250.581299,236.363235 256.243683,236.960327 261.871063,236.922089 
	C273.963165,236.839966 285.846436,238.090515 297.072205,242.642502 
	C320.361481,252.086121 333.334503,269.703308 337.087738,294.396820 
	C338.780670,305.535248 336.094177,315.873932 331.464050,325.803650 
	C330.191101,328.533661 330.011078,330.234589 332.030243,332.836670 
	C344.167145,348.477448 343.523438,364.543335 329.827332,379.172028 
	C325.437195,383.861115 319.895386,387.387054 312.692780,387.063019 
	C306.060638,386.764557 299.400665,387.085571 292.024170,386.918762 
	C291.275208,380.147583 291.255035,373.591370 291.234863,367.035187 
z"/>
<path fill="#EA2A5A" opacity="1.000000" stroke="none" 
	d="
M291.127747,366.576355 
	C291.255035,373.591370 291.275208,380.147583 291.597961,386.839722 
	C291.596588,391.709503 291.257080,396.441467 291.005829,401.178101 
	C290.902344,403.128418 290.988678,405.088806 290.988678,408.101227 
	C284.463715,404.181763 278.714783,400.577759 272.788330,397.294098 
	C271.586884,396.628448 269.398987,396.597961 268.206207,397.255219 
	C262.279846,400.520752 256.534302,404.114410 249.631042,408.247498 
	C249.631042,400.608063 249.631042,394.201263 249.698914,387.085205 
	C249.785385,379.904816 249.803986,373.433716 249.822601,366.962585 
	C249.877747,364.993622 249.932877,363.024689 249.963974,360.225525 
	C250.470840,357.614960 251.001740,355.834564 251.532623,354.054169 
	C264.428009,354.054169 277.323425,354.054169 291.020599,354.054169 
	C291.020599,358.319244 291.020599,362.218384 291.127747,366.576355 
z"/>
<path fill="#1E232E" opacity="1.000000" stroke="none" 
	d="
M249.365479,366.971191 
	C249.803986,373.433716 249.785385,379.904816 249.514526,386.714813 
	C233.111038,387.018433 216.959473,387.032104 200.808731,386.923309 
	C194.543259,386.881104 190.683594,383.088135 190.555878,377.209686 
	C190.426422,371.251160 194.576614,367.061981 200.938705,367.031647 
	C216.928299,366.955383 232.918427,366.989746 249.365479,366.971191 
z"/>
<path fill="#1D222C" opacity="1.000000" stroke="none" 
	d="
M216.968201,133.539429 
	C216.590378,133.926285 216.212570,134.313156 215.288818,134.868362 
	C213.818405,135.871597 212.893921,136.706467 211.969437,137.541351 
	C208.634247,140.875549 205.299072,144.209763 201.424866,147.831802 
	C200.304474,148.687927 199.723114,149.256226 199.141754,149.824524 
	C199.141769,149.824524 199.004807,150.010239 198.934845,150.103516 
	C195.891098,150.564346 196.946060,149.125015 197.627518,147.626648 
	C202.629227,136.629089 209.553375,127.026299 218.599609,119.028946 
	C220.788940,117.093452 223.660400,113.651321 226.488403,116.690033 
	C229.057098,119.450089 228.938904,123.490562 225.112946,126.198761 
	C224.728760,126.470711 224.503342,126.966980 224.091721,127.691620 
	C223.979187,128.024094 224.002777,127.999710 223.659821,128.039215 
	C222.535721,128.899918 221.754578,129.721130 220.973450,130.542343 
	C220.973450,130.542343 220.691177,130.842758 220.218033,130.944763 
	C218.819321,131.877640 217.893768,132.708527 216.968201,133.539429 
z"/>
<path fill="#29252F" opacity="1.000000" stroke="none" 
	d="
M251.022858,353.988525 
	C251.001740,355.834564 250.470840,357.614960 249.895660,359.809052 
	C243.047104,358.655090 236.242813,357.087402 229.438538,355.519745 
	C229.467850,354.987457 229.497147,354.455139 229.526459,353.922852 
	C236.521988,353.922852 243.517532,353.922852 251.022858,353.988525 
z"/>
<path fill="#000000" opacity="1.000000" stroke="none" 
	d="
M221.225891,130.321869 
	C221.754578,129.721130 222.535721,128.899918 223.675247,128.032303 
	C223.181885,128.691055 222.330109,129.396225 221.225891,130.321869 
z"/>
<path fill="#000000" opacity="1.000000" stroke="none" 
	d="
M217.243286,133.294861 
	C217.893768,132.708527 218.819321,131.877640 220.143936,131.016403 
	C219.534790,131.674133 218.526581,132.362213 217.243286,133.294861 
z"/>
<path fill="#000000" opacity="1.000000" stroke="none" 
	d="
M212.244995,137.297760 
	C212.893921,136.706467 213.818405,135.871597 215.144485,135.010803 
	C214.537567,135.674637 213.529068,136.364395 212.244995,137.297760 
z"/>
<path fill="#000000" opacity="1.000000" stroke="none" 
	d="
M199.403000,149.680420 
	C199.723114,149.256226 200.304474,148.687927 201.203796,148.044525 
	C200.902588,148.491730 200.283417,149.014023 199.403000,149.680420 
z"/>
</svg>